# xmcd CD database file
#
# Track frame offsets:
#	150
#	34105
#	72084
#	107825
#	134170
#	156839
#	185656
#	206948
#	232546
#	256304
#	274099
#	300936
#	323932
#
# Disc length: 4646 seconds
#
# Revision: 2
# Processed by: cddbd v1.5.2PL0 Copyright (c) Steve Scherf et al.
# Submitted via: CDex 1.81
#
DISCID=b812240d
DTITLE=Grover Washington Jr. - The Definitive - The Elektra Years
DYEAR=2004
DGENRE=Jazz
TTITLE0=Winelight
TTITLE1=The Answer In Your Eyes
TTITLE2=Tell Me About It Now
TTITLE3=Let It Flow (For "Dr. J")
TTITLE4=Just The Two Of Us (Edit)
TTITLE5=Be Mine (Tonight)
TTITLE6=East River Drive
TTITLE7=Little Black Samba
TTITLE8=Can You Dig It
TTITLE9=Cassie's Theme (Theme From Cassie and Co.)
TTITLE10=The Best Is Yet To Come
TTITLE11=Jammin'
TTITLE12=Jet Stream
EXTD=YEAR: 2004
EXTT0=
EXTT1=
EXTT2=
EXTT3=
EXTT4=
EXTT5=
EXTT6=
EXTT7=
EXTT8=
EXTT9=
EXTT10=
EXTT11=
EXTT12=
PLAYORDER=
